<svg width="127" height="107" viewBox="0 0 127 107" fill="none" xmlns="http://www.w3.org/2000/svg">
<path d="M108.175 46.0619L15.3306 68.5386C14.0842 68.8387 13.3119 70.1071 13.61 71.3618L29.3527 137.21C29.6508 138.465 30.9107 139.242 32.1572 138.942L125.001 116.465C126.248 116.165 127.02 114.897 126.708 113.642L110.979 47.7804C110.668 46.5256 109.421 45.7618 108.175 46.0619ZM18.2027 76.8446L22.1452 70.1753L26.467 69.1251L19.273 81.3045L18.2027 76.8446ZM20.6956 87.2919L32.2655 67.7203L36.5873 66.6701L21.7659 91.7518L20.6956 87.2919ZM23.1884 97.7392L42.3723 65.2789L46.6941 64.2287L24.2587 102.213L23.1884 97.7392ZM25.6812 108.187L52.4927 62.8239L56.8145 61.7738L26.7515 112.646L25.6812 108.187ZM28.1876 118.634L62.613 60.369L66.9348 59.3188L29.2443 123.08L28.1876 118.634ZM30.6804 129.081L72.7333 57.9276L77.0551 56.8774L31.7507 133.541L30.6804 129.081ZM36.0319 134.7L82.8537 55.4726L87.1755 54.4225L40.3537 133.664L36.0319 134.7ZM46.1387 132.259L92.9605 53.0313L97.2823 51.9811L50.4605 131.209L46.1387 132.259ZM56.259 129.804L103.081 50.5763L107.403 49.5261L60.5808 128.754L56.259 129.804ZM122.888 111.351L121.276 114.065L116.954 115.115L121.818 106.891L122.888 111.351ZM120.395 100.903L111.169 116.52L106.847 117.57L119.325 96.4436L120.395 100.903ZM117.889 90.4561L101.035 118.961L96.7133 120.011L116.818 85.9962L117.889 90.4561ZM115.396 80.0088L90.9283 121.416L86.6065 122.466L114.326 75.5489L115.396 80.0088ZM112.903 69.5615L80.8079 123.858L76.4861 124.908L111.833 65.1016L112.903 69.5615ZM110.41 59.1142L70.7011 126.312L66.3793 127.363L109.354 54.6543L110.41 59.1142Z" fill="#F5F5F5"/>
<path d="M108.229 16.3157L87.4871 21.3348C89.587 18.3752 90.4947 14.5972 89.587 10.792C88.7741 7.36865 86.5794 4.38176 83.5717 2.58144C80.6453 0.835673 77.2313 0.358314 74.0204 1.2312C64.171 3.9044 57.248 18.8389 54.3487 26.2993C48.4012 20.9802 35.4899 10.8602 25.5051 12.9878C22.2536 13.697 19.422 15.661 17.6066 18.5661C15.737 21.5393 15.1409 25.2082 15.9538 28.6315C16.8615 32.4367 19.3814 35.3964 22.5923 37.0603L1.85032 42.0794C0.752935 42.3521 0.0619885 43.4705 0.332948 44.5753L5.88762 67.8158C6.15858 68.9205 7.26951 69.6161 8.3669 69.3433L114.746 43.5933C115.843 43.3205 116.534 42.2021 116.263 41.0974L110.708 17.8569C110.451 16.7385 109.34 16.0566 108.229 16.3157ZM74.8468 4.3272C77.2177 3.64526 79.7647 4.02715 81.946 5.33647C84.222 6.68671 85.8749 8.95075 86.4981 11.5421C87.7445 16.7794 84.5336 22.0576 79.3447 23.3124L56.9635 28.727C56.9364 28.6997 56.9093 28.6724 56.8687 28.6452C59.2937 22.1804 65.9187 6.7549 74.8468 4.3272ZM19.0427 27.8677C18.4195 25.2764 18.8801 22.5077 20.2891 20.2573C21.6033 18.1706 23.5948 16.7249 25.9115 16.1657C25.9928 16.1384 26.0741 16.1247 26.1689 16.1111C35.2054 14.188 48.076 24.8808 53.1701 29.5317C53.1565 29.5726 53.143 29.6135 53.1294 29.6544L30.7482 35.069C25.5457 36.3374 20.3027 33.105 19.0427 27.8677ZM112.903 40.7428L8.7056 65.9609L3.6793 44.9162L31.4797 38.1923L51.9778 33.2278L59.5782 31.3866L80.0763 26.422L107.877 19.6981L112.903 40.7428Z" fill="#F5F5F5"/>
</svg>
