<svg width="122" height="129" viewBox="0 0 122 129" fill="none" xmlns="http://www.w3.org/2000/svg">
<path d="M44.1384 60.2175V62.7038C66.583 62.7038 84.8525 81.0773 84.8525 103.677C84.8525 126.265 66.5954 144.651 44.1384 144.651C21.6938 144.651 3.42435 126.278 3.42435 103.677C3.42435 81.0897 21.6814 62.7038 44.1384 62.7038V60.2175ZM44.1384 60.2175C20.2856 60.2175 0.95384 79.6725 0.966192 103.677C0.978545 127.682 20.298 147.137 44.1508 147.125C68.0036 147.125 87.3354 127.67 87.323 103.665C87.3106 79.6601 67.9789 60.2175 44.1384 60.2175Z" fill="#D6D6D6"/>
<path d="M44.1384 68.3724V69.6156C62.7908 69.6156 77.9721 84.8936 77.9721 103.665C77.9721 112.765 74.4516 121.317 68.0653 127.744C61.679 134.171 53.1805 137.714 44.1384 137.727C25.486 137.727 10.3047 122.449 10.3047 103.677C10.3047 94.5776 13.8252 86.0249 20.2115 79.5979C26.5977 73.1709 35.0963 69.628 44.1384 69.6156V68.3724ZM44.1384 68.3724C24.7696 68.3724 9.06946 84.1851 9.06946 103.677C9.06946 123.17 24.7819 138.97 44.1507 138.97C63.5196 138.97 79.2197 123.157 79.2197 103.665C79.2073 84.1726 63.5072 68.3724 44.1384 68.3724Z" fill="#D6D6D6"/>
<path d="M60.3821 99.3637C60.0115 97.8098 59.3444 96.3181 58.3809 94.8885C57.4174 93.4589 56.1822 92.1536 54.6752 90.9602C51.4759 88.4366 48.1407 87.1811 44.6696 87.2059C41.1985 87.2308 37.9498 88.5112 34.9111 91.0596L32.07 88.822C32.0329 88.7971 31.9835 88.7847 31.9465 88.7971L28.253 89.8662C28.1419 89.9035 28.1048 90.0527 28.2036 90.1273L32.5023 93.521C32.3294 93.6951 32.1564 93.8815 32.0082 94.068C31.86 94.2669 31.7118 94.4534 31.5512 94.6523C31.3412 94.9258 31.1435 95.1744 30.9582 95.423C30.773 95.6717 30.6 95.9203 30.4271 96.1813L27.9195 94.1799C27.8825 94.155 27.8331 94.1426 27.796 94.155L24.1026 95.2241C23.9914 95.2614 23.9543 95.4106 24.0532 95.4852L28.6977 99.1524C27.0301 102.733 26.5731 106.189 27.3389 109.495C28.1048 112.802 30.0812 115.723 33.2805 118.259C34.7875 119.453 36.344 120.36 37.9745 120.994C39.5927 121.628 41.2109 121.964 42.8167 122.001C44.4225 122.038 45.9913 121.765 47.5107 121.181C48.9189 120.634 50.2406 119.801 51.4759 118.67C51.6241 118.533 51.6241 118.284 51.4635 118.147L47.5477 115.052C47.4242 114.953 47.2513 114.965 47.1278 115.077C46.1519 115.947 45.1884 116.556 44.2496 116.892C43.2491 117.252 42.2608 117.402 41.2973 117.327C40.3338 117.252 39.395 116.991 38.481 116.544C37.5669 116.096 36.6898 115.537 35.8499 114.866C33.7129 113.175 32.49 111.298 32.1935 109.234C31.897 107.171 32.2553 105.02 33.2805 102.758L38.8145 107.133C38.8762 107.183 38.9504 107.195 39.0245 107.171L42.4955 106.164C42.6808 106.114 42.7302 105.865 42.582 105.741L34.9852 99.7243C35.1458 99.4632 35.3187 99.2021 35.5163 98.9659C35.7016 98.7173 35.8993 98.4687 36.1093 98.1952C36.2575 97.9963 36.4057 97.8098 36.5663 97.6109C36.7145 97.412 36.8751 97.2256 37.0604 97.064L46.3248 104.386C46.3866 104.436 46.4607 104.448 46.5348 104.423L50.0059 103.416C50.1912 103.367 50.2406 103.118 50.0924 102.994L39.4815 94.6026C41.5197 92.9119 43.5702 91.992 45.6578 91.8304C47.7454 91.6688 49.8453 92.4271 51.9576 94.1053C52.8593 94.8139 53.6129 95.5722 54.2305 96.3678C54.8481 97.1634 55.2928 98.0336 55.5522 98.9535C55.824 99.8734 55.8857 100.856 55.7498 101.912C55.6263 102.845 55.3052 103.827 54.774 104.871C54.6505 105.107 54.6999 105.405 54.9099 105.579L58.4674 108.401C58.7392 108.613 59.1468 108.538 59.3074 108.227C60.0115 106.872 60.4562 105.505 60.6538 104.1C60.8267 102.496 60.7526 100.905 60.3821 99.3637Z" fill="#D6D6D6"/>
<path d="M58.7886 71.7164C66.0395 75.0853 71.9441 80.8783 75.4892 88.0636H84.4449C79.9609 76.3285 70.5606 67.0547 58.7886 62.7783V71.7164Z" fill="#D6D6D6"/>
<path d="M12.7876 88.0636C16.3328 80.8783 22.2374 75.0853 29.4883 71.7165V62.7908C17.7163 67.0671 8.32837 76.3409 3.83203 88.0761H12.7876V88.0636Z" fill="#D6D6D6"/>
<path d="M76.2922 117.551C72.8829 125.544 66.6201 131.996 58.7886 135.638V144.564C71.1411 140.089 80.8626 130.094 85.0625 117.551H76.2922Z" fill="#D6D6D6"/>
<path d="M29.4883 135.638C21.6567 131.996 15.394 125.544 11.9847 117.551H3.21436C7.41423 130.094 17.1357 140.089 29.4883 144.564V135.638Z" fill="#D6D6D6"/>
<path d="M96.7233 25.4845V27.9708C109.15 27.9708 119.254 38.1396 119.254 50.6455C119.254 56.6995 116.907 62.3931 112.658 66.6819C108.409 70.9707 102.739 73.3202 96.7233 73.3202C84.2966 73.3202 74.1922 63.1514 74.1922 50.6455C74.1922 44.5914 76.5392 38.8979 80.7885 34.6091C85.0378 30.3203 90.7076 27.9708 96.7233 27.9708V25.4845ZM96.7109 25.4845C82.9008 25.4845 71.7094 36.7473 71.7094 50.6455C71.7094 64.5437 82.9008 75.8065 96.7109 75.8065C110.521 75.8065 121.713 64.5437 121.713 50.6455C121.725 36.7473 110.521 25.4845 96.7109 25.4845Z" fill="#D6D6D6"/>
<path d="M96.7233 30.2084V31.4515C107.235 31.4515 115.796 40.0664 115.796 50.6455C115.796 61.2245 107.235 69.8394 96.7233 69.8394C86.2113 69.8394 77.6509 61.2245 77.6509 50.6455C77.6509 45.5237 79.6397 40.7004 83.2343 37.0705C86.8412 33.4405 91.6217 31.4515 96.7233 31.4515V30.2084ZM96.7109 30.2084C85.4948 30.2084 76.4033 39.3578 76.4033 50.6455C76.4033 61.9331 85.4948 71.0825 96.7109 71.0825C107.927 71.0825 117.019 61.9331 117.019 50.6455C117.031 39.3578 107.927 30.2084 96.7109 30.2084Z" fill="#D6D6D6"/>
<path d="M106.124 48.1468C105.901 47.2517 105.518 46.3815 104.962 45.561C104.407 44.7281 103.69 43.9823 102.813 43.2861C100.96 41.8192 99.0332 41.0982 97.0197 41.1106C95.0063 41.1231 93.1287 41.8689 91.3746 43.3358L89.7317 42.043C89.707 42.0305 89.6823 42.0181 89.6576 42.0305L87.5206 42.6521C87.4589 42.677 87.4342 42.7516 87.4959 42.8013L89.9788 44.7654C89.88 44.8649 89.7811 44.9768 89.6947 45.0886C89.6082 45.2005 89.5217 45.3124 89.4353 45.4243C89.3117 45.5735 89.2006 45.7226 89.0894 45.8718C88.9782 46.0086 88.8794 46.1577 88.7806 46.3069L87.323 45.1508C87.2983 45.1384 87.2736 45.1259 87.2489 45.1384L85.1119 45.7599C85.0501 45.7848 85.0254 45.8594 85.0872 45.9091L87.78 48.0349C86.8165 50.1109 86.5448 52.1123 86.9895 54.0268C87.4342 55.9412 88.5706 57.6318 90.4235 59.0987C91.3005 59.7825 92.2022 60.317 93.141 60.6775C94.0798 61.038 95.0186 61.2369 95.9451 61.2618C96.8839 61.2867 97.7856 61.125 98.6626 60.7894C99.4779 60.4786 100.244 59.9938 100.96 59.3349C101.047 59.2603 101.047 59.1112 100.948 59.0366L98.675 57.2465C98.6009 57.1843 98.5021 57.1967 98.4279 57.2589C97.8597 57.7686 97.3039 58.1167 96.7603 58.3156C96.1798 58.5269 95.6116 58.6139 95.0557 58.5642C94.4998 58.5145 93.9563 58.3653 93.4251 58.1167C92.894 57.8556 92.3875 57.5324 91.8934 57.147C90.6582 56.1649 89.9417 55.0834 89.7688 53.89C89.5959 52.6966 89.8058 51.4411 90.3988 50.1358L93.5981 52.6718C93.6351 52.6966 93.6722 52.709 93.7216 52.6966L95.7351 52.1123C95.8463 52.075 95.871 51.9383 95.7845 51.8637L91.387 48.3829C91.4858 48.2338 91.5846 48.0846 91.6958 47.9479C91.807 47.8111 91.9181 47.6619 92.0417 47.5003C92.1281 47.3884 92.2146 47.2766 92.3011 47.1647C92.3875 47.0528 92.4864 46.9409 92.5852 46.8415L97.9462 51.0805C97.9832 51.1054 98.0203 51.1178 98.0697 51.1054L100.083 50.5211C100.194 50.4838 100.219 50.3471 100.133 50.2725L93.981 45.4119C95.1545 44.4298 96.3527 43.8952 97.5509 43.8082C98.7615 43.7212 99.972 44.1563 101.195 45.1259C101.714 45.5362 102.158 45.9713 102.504 46.4437C102.863 46.9036 103.122 47.4009 103.27 47.9354C103.431 48.47 103.468 49.0418 103.394 49.6509C103.32 50.1855 103.134 50.7573 102.825 51.3665C102.751 51.5032 102.788 51.6772 102.912 51.7767L104.975 53.4052C105.135 53.5295 105.37 53.4798 105.457 53.3057C105.864 52.5226 106.124 51.727 106.235 50.9189C106.383 49.9617 106.334 49.0542 106.124 48.1468Z" fill="#D6D6D6"/>
<path d="M105.197 32.1478C109.397 34.0995 112.819 37.4559 114.869 41.6204H120.057C117.463 34.8329 112.016 29.4626 105.209 26.9888V32.1478H105.197Z" fill="#D6D6D6"/>
<path d="M78.5651 41.608C80.6157 37.4435 84.0373 34.087 88.2372 32.1353V26.9639C81.4186 29.4377 75.9834 34.808 73.3894 41.5955H78.5651V41.608Z" fill="#D6D6D6"/>
<path d="M115.326 58.6761C113.35 63.3006 109.731 67.0424 105.197 69.1433V74.3147C112.349 71.7166 117.982 65.936 120.416 58.6761H115.326Z" fill="#D6D6D6"/>
<path d="M88.2371 69.1558C83.7037 67.0549 80.0721 63.313 78.108 58.6886H73.0311C75.4646 65.9485 81.0974 71.7415 88.2495 74.3272V69.1558H88.2371Z" fill="#D6D6D6"/>
<path d="M41.3589 0.845459V3.33172C50.574 3.33172 58.7761 8.88852 62.2471 17.491C64.5077 23.0975 64.4706 29.2634 62.1236 34.8451C59.7766 40.4268 55.4162 44.7529 49.8452 47.0278C47.1276 48.1342 44.2865 48.6936 41.3836 48.6936C32.1686 48.6936 23.9665 43.1368 20.4955 34.5343C18.2349 28.9278 18.272 22.7619 20.619 17.1802C22.966 11.5985 27.3264 7.27245 32.8974 4.99752C35.615 3.89113 38.4561 3.33172 41.3589 3.33172V0.845459ZM41.3589 0.845459C38.2337 0.845459 35.0468 1.44216 31.971 2.69772C19.1737 7.91888 13.0098 22.6003 18.2102 35.4791C22.1507 45.2625 31.5139 51.1798 41.3836 51.1798C44.5088 51.1798 47.6958 50.5831 50.7716 49.3276C63.5689 44.1064 69.7328 29.425 64.5324 16.5462C60.5919 6.77519 51.2286 0.845459 41.3589 0.845459Z" fill="#D6D6D6"/>
<path d="M41.3591 5.56946V6.81259C49.1659 6.81259 56.1081 11.5116 59.0356 18.7964C60.9503 23.5451 60.9132 28.7663 58.9368 33.4902C56.948 38.2141 53.267 41.8813 48.5359 43.8082C46.2384 44.753 43.8296 45.2253 41.3715 45.2253C33.5646 45.2253 26.6225 40.5263 23.6949 33.2416C19.7421 23.4333 24.4484 12.2202 34.1946 8.24219C36.4922 7.30984 38.9009 6.82502 41.3591 6.82502V5.56946ZM41.3591 5.56946C38.8145 5.56946 36.2328 6.05428 33.7252 7.07365C23.3367 11.3127 18.3216 23.2344 22.5461 33.7015C25.7455 41.6451 33.3423 46.456 41.3715 46.456C43.9161 46.456 46.4978 45.9712 49.0053 44.9519C59.3938 40.7128 64.409 28.7911 60.1844 18.324C56.9727 10.3928 49.3759 5.56946 41.3591 5.56946Z" fill="#D6D6D6"/>
<path d="M49.1412 20.1391C48.61 19.3932 47.9183 18.7343 47.103 18.1749C46.2754 17.6155 45.3366 17.1928 44.2619 16.8821C42.0014 16.2232 39.9385 16.2854 38.0856 17.0561C36.2327 17.8268 34.7628 19.2316 33.6881 21.2579L31.687 20.6736C31.6623 20.6612 31.6376 20.6736 31.6129 20.686L29.8588 22.0783C29.8094 22.1156 29.8218 22.2027 29.8835 22.2275L32.9223 23.1101C32.8605 23.2469 32.8111 23.3712 32.774 23.5204C32.737 23.6571 32.6999 23.7939 32.6629 23.9306C32.6134 24.1171 32.564 24.3036 32.5146 24.4776C32.4652 24.6516 32.4282 24.8257 32.3911 24.9997L30.6123 24.4776C30.5876 24.4652 30.5629 24.4776 30.5382 24.49L28.7842 25.8699C28.7347 25.9072 28.7471 25.9942 28.8089 26.0191L32.107 26.9763C31.9835 29.2636 32.4899 31.2154 33.614 32.8314C34.7381 34.4351 36.4304 35.5788 38.6909 36.2252C39.7532 36.536 40.7908 36.6851 41.8038 36.6603C42.8043 36.6478 43.7431 36.4738 44.6201 36.1382C45.4972 35.8025 46.2754 35.3177 46.9671 34.6713C47.6095 34.0746 48.1283 33.3287 48.5606 32.4585C48.61 32.3466 48.5483 32.2223 48.4371 32.185L45.6701 31.377C45.5836 31.3521 45.4848 31.4018 45.4478 31.4764C45.1142 32.1601 44.7313 32.6947 44.299 33.0801C43.8419 33.4903 43.3355 33.7886 42.8043 33.9627C42.2732 34.1367 41.7049 34.1989 41.1244 34.1616C40.5438 34.1243 39.9509 34.0124 39.3456 33.8384C37.8262 33.4033 36.7639 32.6574 36.1586 31.6132C35.5534 30.5689 35.2816 29.3382 35.3434 27.8962L39.2591 29.0275C39.2962 29.0399 39.3456 29.0275 39.3827 29.0026L41.0255 27.7097C41.112 27.6351 41.0873 27.4984 40.9761 27.4611L35.6028 25.8948C35.6275 25.7207 35.6769 25.5467 35.7263 25.3726C35.7757 25.1986 35.8251 25.0246 35.8745 24.8257C35.9116 24.6889 35.9486 24.5522 35.9857 24.4154C36.0228 24.2787 36.0722 24.1419 36.1339 24.0052L42.6808 25.9072C42.7178 25.9196 42.7673 25.9072 42.8043 25.8823L44.4472 24.5895C44.5337 24.5149 44.509 24.3781 44.3978 24.3408L36.8874 22.1654C37.6162 20.8104 38.518 19.8656 39.605 19.331C40.692 18.7841 41.9767 18.7343 43.4714 19.1694C44.1013 19.3559 44.6819 19.5921 45.176 19.8904C45.6825 20.1888 46.1024 20.5493 46.4483 20.9844C46.7942 21.4195 47.0412 21.9292 47.2018 22.5259C47.3377 23.048 47.3748 23.6447 47.313 24.3284C47.3006 24.49 47.3871 24.6392 47.5353 24.6765L50.0553 25.4099C50.2406 25.4597 50.4505 25.3354 50.4629 25.1365C50.5494 24.2538 50.4876 23.4209 50.29 22.6253C50.0676 21.7303 49.6847 20.8974 49.1412 20.1391Z" fill="#D6D6D6"/>
<path d="M42.3103 5.65654C46.9302 5.88031 51.3524 7.69528 54.8111 10.7658L59.6163 8.80167C54.6752 3.4935 47.6219 0.572137 40.3833 0.858057L42.3103 5.65654Z" fill="#D6D6D6"/>
<path d="M21.1627 24.5149C21.5085 19.878 23.4232 15.4773 26.5854 12.0835L24.6584 7.29749C19.2604 12.1706 16.234 19.2067 16.3575 26.479L21.1627 24.5149Z" fill="#D6D6D6"/>
<path d="M61.6173 26.4168C61.5185 31.4515 59.5544 36.2873 56.1451 39.9545L58.0721 44.7406C63.7296 39.6313 66.7807 32.1477 66.3237 24.49L61.6173 26.4168Z" fill="#D6D6D6"/>
<path d="M40.4203 46.369C35.4299 46.1329 30.6741 44.0444 27.1166 40.5015L22.4103 42.4283C27.376 48.2462 34.7505 51.4659 42.3473 51.1675L40.4203 46.369Z" fill="#D6D6D6"/>
</svg>
