<svg width="159" height="119" viewBox="0 0 159 119" fill="none" xmlns="http://www.w3.org/2000/svg">
<g clip-path="url(#clip0_4_687)">
<path d="M129.146 9.11674C130.844 19.7931 138.13 66.6958 138.016 82.6977C137.877 102.199 108.251 133.315 102.131 139.529C94.0086 136.701 54.6768 122.284 45.7182 105.648C38.128 91.5735 22.631 46.6997 19.1337 36.4798L35.1249 33.3225C42.0435 31.9531 48.7973 29.6961 55.1963 26.6276L72.9742 18.0814L92.6782 17.3079C99.7741 17.0289 106.794 15.8624 113.548 13.8209L129.146 9.11674ZM129.526 6.45398C129.324 6.45398 129.121 6.47934 128.931 6.54274L112.8 11.3864C106.236 13.3645 99.4573 14.493 92.5641 14.7593L72.3407 15.5581L54.0939 24.3325C47.8723 27.3249 41.3466 29.5059 34.6307 30.8246L18.12 34.096C16.8909 34.3369 16.1559 35.6049 16.5614 36.7841C20.1727 47.359 35.7331 92.4738 43.488 106.853C54.0559 126.456 102.815 142.445 102.815 142.445C102.815 142.445 140.386 105.673 140.55 82.723C140.677 66.3788 133.328 19.2225 131.567 8.19111C131.402 7.15137 130.515 6.45398 129.526 6.45398Z" fill="#D6D6D6"/>
<path d="M109.48 20.4525C103.804 22.1643 97.9368 23.1406 91.9559 23.3689L74.4441 24.0536L58.643 31.6488C53.2577 34.2355 47.6062 36.1248 41.7901 37.2786L25.4948 40.4993C25.4948 40.4993 41.8408 88.9488 49.4563 103.087C58.605 120.052 100.813 133.886 100.813 133.886C100.813 133.886 133.328 102.06 133.48 82.1905C133.594 66.1252 125.383 15.6595 125.383 15.6595L109.48 20.4525Z" fill="#F5F5F5"/>
<path d="M123.343 18.9309C125.066 29.8102 131.06 68.6992 130.958 82.1905C130.832 98.7884 105.742 125.289 100.142 130.995C92.7034 128.396 59.3271 116.058 51.699 101.895C45.2493 89.9252 32.2231 52.3422 28.8399 42.4393L42.2969 39.7765C48.3157 38.5846 54.1826 36.6319 59.758 33.9438L75.0776 26.5769L92.0572 25.9048C98.2282 25.6639 104.336 24.6495 110.203 22.8744L123.343 18.9309ZM125.396 15.6595L109.48 20.4525C103.804 22.1643 97.9367 23.1406 91.9558 23.3689L74.444 24.0536L58.6429 31.6488C53.2576 34.2355 47.6061 36.1248 41.79 37.2786L27.2433 40.1569C26.3056 40.3471 25.7481 41.2981 26.0649 42.1984C29.03 50.8841 42.6897 90.5338 49.4562 103.1C58.6049 120.065 100.813 133.899 100.813 133.899C100.813 133.899 133.328 102.072 133.48 82.2032C133.607 66.1379 125.396 15.6595 125.396 15.6595Z" fill="#D6D6D6"/>
<path d="M91.9559 23.3816L74.4441 24.0663L73.5317 24.5101L84.7585 69.7263L131.478 58.1115C129.476 41.6278 126.587 23.166 125.674 17.4601C125.522 16.5218 124.585 15.9258 123.672 16.2048L109.48 20.4779C103.804 22.1643 97.9367 23.1406 91.9559 23.3816Z" fill="#D6D6D6"/>
<path d="M49.4688 103.099C58.3134 119.52 98.1141 132.998 100.686 133.861L84.7585 69.7135L39.9653 80.8464C43.488 90.0139 46.9599 98.4333 49.4688 103.099Z" fill="#D6D6D6"/>
</g>
<defs>
<clipPath id="clip0_4_687">
<rect width="159" height="119" fill="white"/>
</clipPath>
</defs>
</svg>
